<svg width="28" height="28" viewBox="0 0 28 28" fill="none" xmlns="http://www.w3.org/2000/svg">
<path fill-rule="evenodd" clip-rule="evenodd" d="M7.5582 12.3069C7.22352 10.6322 9.12002 9.73907 10.3472 8.95755C11.0165 8.51096 11.1281 7.84108 10.905 7.1712C10.2356 5.27321 9.00846 3.59851 8.22755 1.70052C8.11599 1.36558 7.78132 1.14229 7.44664 1.03065C4.21144 0.695706 1.86871 3.15193 1.19936 6.16638C-0.80869 15.0981 12.8014 28.719 21.8377 26.821C24.8498 26.1511 27.3041 23.8065 26.9694 20.5688C26.8578 20.2338 26.6347 19.8989 26.3 19.7873C24.4035 19.0057 22.7302 17.7776 20.8337 17.1077C20.1643 16.8844 19.495 16.9961 19.0487 17.666C18.2678 18.8941 17.3753 20.7921 15.702 20.4571C12.8014 19.8989 8.00443 15.0981 7.5582 12.3069Z" stroke="#9EA9B6"/>
</svg>
