<svg width="244" height="212" viewBox="0 0 244 212" fill="none" xmlns="http://www.w3.org/2000/svg">
<path d="M122 0L244 181.026L212.032 172.453L163.662 162.891L122 160.912L90.577 162.891L63.0379 166.847L32.6742 172.453L0 181.026L122 0Z" fill="black"/>
<path d="M104.347 25.7189L143.89 30.6655L146.361 36.2711L101.169 30.6654L104.347 25.7189Z" fill="white"/>
<path d="M96.226 37.9193L151.305 44.1851L155.188 49.4608L93.0485 42.2066L96.226 37.9193Z" fill="white"/>
<path d="M89.1648 49.1307L161.19 56.7148L164.721 63.9691L83.5157 56.7148L89.1648 49.1307Z" fill="white"/>
<path d="M55.2704 102.878L207.089 128.6L42.2067 171.136L1.25108 180.697L104.346 137.501L105.887 136.063C109.808 132.401 109.023 126.079 104.346 123.652L55.2704 102.878Z" fill="white"/>
<path d="M76.3077 67.3556L174.607 77.7145L182.021 87.7106L70.8056 75.8402L76.3077 67.3556Z" fill="white"/>
<path d="M62.6847 87.7101L189.789 101.23L196.497 110.462L57.1825 96.1947L62.6847 87.7101Z" fill="white"/>
<path d="M76.3077 67.3556L174.607 77.7145L182.021 87.7106L70.8056 75.8402L76.3077 67.3556Z" fill="white"/>
<path d="M62.6847 87.7101L189.789 101.23L196.497 110.462L57.1825 96.1947L62.6847 87.7101Z" fill="white"/>
<path d="M19.5099 187.909L17.3366 201H14.1726L16.3459 187.909H19.5099ZM21.1335 193.515L20.8587 195.925H16.6207L16.8956 193.515H21.1335ZM32.6776 194.659C32.4389 196.07 31.9702 197.261 31.2713 198.232C30.5767 199.2 29.7308 199.933 28.7337 200.431C27.7408 200.93 26.6733 201.179 25.5312 201.179C24.3253 201.179 23.2813 200.911 22.3991 200.374C21.517 199.837 20.8757 199.055 20.4751 198.028C20.0788 197.001 20.0021 195.754 20.245 194.288C20.4751 192.878 20.9375 191.685 21.6321 190.709C22.331 189.733 23.1811 188.994 24.1825 188.491C25.1882 187.984 26.2663 187.73 27.4169 187.73C28.6143 187.73 29.652 188.001 30.5298 188.542C31.4119 189.083 32.0511 189.869 32.4474 190.901C32.8438 191.932 32.9205 193.185 32.6776 194.659ZM29.5135 194.288C29.6456 193.466 29.6456 192.773 29.5135 192.211C29.3857 191.648 29.1342 191.224 28.7592 190.939C28.3842 190.649 27.8963 190.504 27.2955 190.504C26.6307 190.504 26.0298 190.668 25.4929 190.996C24.9602 191.32 24.5149 191.793 24.157 192.415C23.799 193.033 23.5497 193.781 23.4091 194.659C23.2642 195.49 23.2599 196.183 23.3963 196.737C23.5369 197.29 23.799 197.708 24.1825 197.989C24.5661 198.266 25.054 198.405 25.6463 198.405C26.3068 198.405 26.9013 198.245 27.4297 197.925C27.9581 197.606 28.3991 197.139 28.7528 196.526C29.1108 195.912 29.3643 195.166 29.5135 194.288ZM44.5716 187.909L44.1369 190.479H38.3585L36.6199 201H33.4558L35.6291 187.909H44.5716ZM56.6094 192.652H53.4517C53.4688 192.32 53.4368 192.023 53.3558 191.763C53.2749 191.499 53.147 191.273 52.9723 191.086C52.7976 190.894 52.5803 190.749 52.3203 190.651C52.0604 190.553 51.7578 190.504 51.4126 190.504C50.7521 190.504 50.1534 190.668 49.6165 190.996C49.0795 191.325 48.63 191.798 48.2678 192.415C47.9055 193.033 47.652 193.775 47.5071 194.64C47.375 195.475 47.3771 196.172 47.5135 196.73C47.6541 197.288 47.9141 197.708 48.2933 197.989C48.6726 198.266 49.1541 198.405 49.7379 198.405C50.1172 198.405 50.4688 198.36 50.7926 198.271C51.1207 198.177 51.4169 198.043 51.6811 197.868C51.9453 197.693 52.1733 197.482 52.3651 197.235C52.5611 196.984 52.7124 196.705 52.8189 196.398H56.0021C55.8445 196.973 55.5845 197.546 55.2223 198.117C54.8643 198.684 54.4126 199.197 53.8672 199.658C53.3217 200.118 52.6889 200.487 51.9688 200.763C51.2486 201.04 50.4474 201.179 49.5653 201.179C48.3594 201.179 47.3196 200.908 46.446 200.367C45.5767 199.826 44.9482 199.042 44.5604 198.015C44.1768 196.984 44.1044 195.735 44.343 194.269C44.5774 192.85 45.0398 191.655 45.7301 190.683C46.4247 189.712 47.2685 188.977 48.2614 188.478C49.2585 187.979 50.3217 187.73 51.451 187.73C52.2692 187.73 53.0043 187.841 53.6562 188.062C54.3125 188.28 54.8686 188.599 55.3246 189.021C55.7805 189.439 56.1193 189.952 56.3409 190.562C56.5668 191.171 56.6562 191.868 56.6094 192.652ZM70.7949 187.909L68.6216 201H65.5023L67.2601 190.44H62.4022L60.6444 201H57.525L59.6983 187.909H70.7949ZM71.073 201L73.2463 187.909H82.3741L81.9395 190.479H75.9757L75.541 193.163H81.0382L80.6035 195.739H75.1064L74.6717 198.43H80.6355L80.2008 201H71.073ZM95.7079 198.552L94.6213 204.094H91.6554L92.1667 201H91.2463L91.6618 198.552H95.7079ZM82.1824 201L84.3556 187.909H87.3983L85.6468 198.52H90.6582L92.4096 187.909H95.497L93.3237 201H82.1824ZM99.5687 201H96.1681L102.758 187.909H106.971L109.214 201H105.814L104.376 191.207H104.273L99.5687 201ZM99.9778 195.848H107.086L106.677 198.251H99.5687L99.9778 195.848ZM110.624 201L112.797 187.909H118.256C119.236 187.909 120.035 188.048 120.653 188.325C121.271 188.602 121.705 188.989 121.957 189.488C122.213 189.987 122.285 190.564 122.174 191.22C122.085 191.714 121.901 192.158 121.624 192.55C121.352 192.937 121.011 193.261 120.602 193.521C120.193 193.777 119.741 193.956 119.247 194.058L119.221 194.186C119.749 194.207 120.216 194.348 120.621 194.608C121.03 194.868 121.333 195.232 121.529 195.701C121.725 196.165 121.769 196.711 121.663 197.337C121.548 198.04 121.264 198.669 120.813 199.223C120.365 199.773 119.775 200.207 119.042 200.527C118.309 200.842 117.461 201 116.498 201H110.624ZM114.222 198.45H116.178C116.856 198.45 117.38 198.32 117.751 198.06C118.126 197.795 118.347 197.433 118.416 196.973C118.471 196.636 118.441 196.347 118.326 196.104C118.211 195.857 118.019 195.667 117.751 195.535C117.482 195.398 117.144 195.33 116.735 195.33H114.721L114.222 198.45ZM115.073 193.291H116.83C117.171 193.291 117.485 193.234 117.77 193.119C118.06 193.004 118.298 192.837 118.486 192.62C118.678 192.403 118.797 192.141 118.844 191.834C118.916 191.395 118.816 191.05 118.544 190.798C118.271 190.547 117.872 190.421 117.348 190.421H115.546L115.073 193.291ZM123.887 190.479L124.322 187.909H135.387L134.952 190.479H130.982L129.244 201H126.124L127.863 190.479H123.887ZM147.571 194.659C147.333 196.07 146.864 197.261 146.165 198.232C145.471 199.2 144.625 199.933 143.627 200.431C142.635 200.93 141.567 201.179 140.425 201.179C139.219 201.179 138.175 200.911 137.293 200.374C136.411 199.837 135.77 199.055 135.369 198.028C134.973 197.001 134.896 195.754 135.139 194.288C135.369 192.878 135.831 191.685 136.526 190.709C137.225 189.733 138.075 188.994 139.076 188.491C140.082 187.984 141.16 187.73 142.311 187.73C143.508 187.73 144.546 188.001 145.424 188.542C146.306 189.083 146.945 189.869 147.341 190.901C147.738 191.932 147.814 193.185 147.571 194.659ZM144.407 194.288C144.539 193.466 144.539 192.773 144.407 192.211C144.279 191.648 144.028 191.224 143.653 190.939C143.278 190.649 142.79 190.504 142.189 190.504C141.525 190.504 140.924 190.668 140.387 190.996C139.854 191.32 139.409 191.793 139.051 192.415C138.693 193.033 138.444 193.781 138.303 194.659C138.158 195.49 138.154 196.183 138.29 196.737C138.431 197.29 138.693 197.708 139.076 197.989C139.46 198.266 139.948 198.405 140.54 198.405C141.201 198.405 141.795 198.245 142.324 197.925C142.852 197.606 143.293 197.139 143.647 196.526C144.005 195.912 144.258 195.166 144.407 194.288ZM150.537 187.909H154.456L156.437 196.014H156.591L161.257 187.909H165.175L163.002 201H159.921L161.257 192.959H161.148L156.686 200.917H154.724L152.909 192.914H152.8L151.445 201H148.364L150.537 187.909ZM167.807 201H164.406L170.997 187.909H175.209L177.453 201H174.052L172.614 191.207H172.512L167.807 201ZM168.216 195.848H175.324L174.915 198.251H167.807L168.216 195.848ZM178.538 190.479L178.972 187.909H190.037L189.602 190.479H185.633L183.894 201H180.775L182.513 190.479H178.538ZM191.582 187.909H194.74L193.487 195.452H193.596L200.001 187.909H202.724L200.55 201H197.386L198.639 193.445H198.556L192.087 201H189.409L191.582 187.909ZM210.536 201L207.327 195.567H206.605L205.704 201H202.54L204.713 187.909H207.877L207.033 192.991H207.538L212.435 187.909H216.391L210.332 194.09L214.48 201H210.536ZM218.467 201H215.067L221.657 187.909H225.869L228.113 201H224.712L223.274 191.207H223.172L218.467 201ZM218.876 195.848H225.984L225.575 198.251H218.467L218.876 195.848Z" fill="white"/>
</svg>
