<?xml version="1.0" encoding="utf-8"?><!DOCTYPE svg  PUBLIC '-//W3C//DTD SVG 1.1//EN'  'http://www.w3.org/Graphics/SVG/1.1/DTD/svg11.dtd'><svg viewBox="0 0 800 800" xmlns="http://www.w3.org/2000/svg" xmlns:xlink="http://www.w3.org/1999/xlink"><style>:root>svg{display:none}:root>svg:target{display:block}</style><svg fill="none" viewBox="0 0 18 19" id="%" xmlns="http://www.w3.org/2000/svg"><path d="M0 4.12c0-1.075.393-1.945 1.178-2.61C1.964.837 2.993.5 4.266.5c1.292 0 2.33.333 3.115.998.786.657 1.179 1.551 1.179 2.681v.866c0 1.082-.393 1.952-1.179 2.61-.785.657-1.814.985-3.088.985-1.282 0-2.32-.328-3.115-.986C.393 6.99 0 6.095 0 4.973v-.854zm2.6.925c0 .481.154.87.46 1.166.317.289.728.433 1.233.433.506 0 .908-.148 1.206-.445.298-.296.447-.693.447-1.19v-.89c0-.48-.15-.87-.447-1.166-.298-.297-.709-.445-1.233-.445-.496 0-.898.148-1.205.445-.307.288-.46.693-.46 1.214v.878zm6.827 8.922c0-1.082.397-1.952 1.191-2.61.795-.665 1.824-.997 3.088-.997 1.283 0 2.317.328 3.102.986.795.649 1.192 1.547 1.192 2.693v.866c0 1.074-.388 1.944-1.165 2.609-.776.657-1.81.986-3.101.986-1.3 0-2.344-.333-3.129-.998-.786-.665-1.178-1.547-1.178-2.645v-.89zm2.6.938c0 .44.163.817.488 1.13.325.313.731.469 1.219.469 1.101 0 1.652-.541 1.652-1.623v-.914c0-.481-.153-.866-.46-1.154-.308-.297-.714-.445-1.22-.445-.505 0-.911.148-1.218.445-.307.288-.46.685-.46 1.19v.902zm-6.962 2.044l-1.91-.914 9.63-13.683 1.91.914-9.63 13.683z" fill="#E11C4B"/></svg><svg fill="none" viewBox="0 0 18 18" id="basket-icon" xmlns="http://www.w3.org/2000/svg"><path d="M13.527 15c-.814 0-1.473.671-1.473 1.5s.659 1.5 1.473 1.5C14.34 18 15 17.329 15 16.5s-.66-1.5-1.473-1.5zm-5.304 0c-.814 0-1.473.671-1.473 1.5S7.41 18 8.223 18c.814 0 1.473-.671 1.473-1.5S9.037 15 8.223 15z" fill="#8D8D8D"/><path fill-rule="evenodd" clip-rule="evenodd" d="M13.527 15.75a.737.737 0 00-.723.75c0 .427.336.75.723.75a.737.737 0 00.723-.75.737.737 0 00-.723-.75zm-5.304 0a.737.737 0 00-.723.75c0 .427.336.75.723.75a.737.737 0 00.723-.75.737.737 0 00-.723-.75zm3.83.75c0-.829.66-1.5 1.474-1.5S15 15.671 15 16.5s-.66 1.5-1.473 1.5c-.814 0-1.473-.671-1.473-1.5zm-5.303 0c0-.829.66-1.5 1.473-1.5.814 0 1.473.671 1.473 1.5S9.037 18 8.223 18c-.814 0-1.473-.671-1.473-1.5zM0 .75A.75.75 0 01.75 0h3.51c.34 0 .639.23.726.558l.967 3.655H17.25a.75.75 0 01.705 1.006l-2.809 7.724a.75.75 0 01-.705.493h-7.02a.75.75 0 01-.726-.558L3.683 1.5H.75A.75.75 0 010 .75zm6.35 4.963l1.648 6.223h5.918l2.263-6.223H6.35z" fill="#8D8D8D"/></svg><svg fill="#fff" viewBox="0 0 512 512" id="bulldozer" xmlns="http://www.w3.org/2000/svg"><path d="M377.252 320.56c-14.039 0-25.46 11.421-25.46 25.46 0 14.038 11.421 25.459 25.46 25.459 14.038 0 25.459-11.421 25.459-25.459 0-14.04-11.421-25.46-25.459-25.46zm0 38.919c-7.422 0-13.46-6.038-13.46-13.459 0-7.422 6.038-13.46 13.46-13.46 7.421 0 13.459 6.038 13.459 13.46 0 7.42-6.038 13.459-13.459 13.459zM230.583 320.56c-14.038 0-25.459 11.421-25.459 25.46 0 14.038 11.421 25.459 25.459 25.459 14.039 0 25.46-11.421 25.46-25.459 0-14.04-11.421-25.46-25.46-25.46zm0 38.919c-7.421 0-13.459-6.038-13.459-13.459 0-7.422 6.038-13.46 13.459-13.46 7.422 0 13.46 6.038 13.46 13.46 0 7.42-6.038 13.459-13.46 13.459z"/><path d="M474.277 214.891v-23.898h-43.145l-12.793-73.574H204.17v12h19.246l-18.908 105.87-59.987 45.365v24.607l-11.557 6.924v-30.28h-25.739L32.26 329.963v-15.345h-12v51.539h112.704v-11.5l11.557-6.924v15.227h40.561c6.89 18.447 24.686 31.62 45.506 31.62s38.616-13.173 45.507-31.619h55.648c6.999 18.83 25.09 31.621 45.513 31.621 20.427 0 38.526-12.792 45.522-31.621h27.835l9.974-34.167 10.618-8.176h20.536V214.891h-17.464zm-264.332 60.08l12.205-9.454 32.324-6.276-2.68 15.73h-41.849zm57.119-18.175l23.691-4.6-3.875 22.774h-22.912l3.096-18.174zm36.28-7.044l23.451-4.553-5.074 29.771h-22.668l4.291-25.218zm36.041-6.997l22.136-4.299c.185.932.401 1.942.656 3.017l-5.7 33.498h-22.582l5.49-32.216zm31.306 20.214c2.477 4.172 5.547 8.286 9.351 12.002h-11.393l2.042-12.002zm25.454 9.248c-15.5-9.122-20.989-27.129-22.808-36.055l39.155-7.603-16.347 43.658zM235.606 129.418h172.64l11.063 63.623-48.36 9.128c2.834-23.958 18.428-42.755 18.596-42.955l1.421-1.678V134.34H241.597l-16.229 95.308-7.931 1.497 18.169-101.727zm2.339 97.855l13.78-80.934h21.966l-13.048 76.649-22.698 4.285zm47.919-80.933h22.924l-11.886 69.806-23.683 4.47 12.645-74.276zm35.097 0h22.666l-10.734 63.013-23.414 4.419 11.482-67.432zm34.84 0h23.165v6.902c-4.587 5.983-18.58 26.13-20.286 51.243l-13.209 2.493 10.33-60.638zM120.964 354.157H32.26v-9.94l78.48-50.313h10.224v60.253zm12-13.49v-14.492l11.557-6.924v14.492l-11.557 6.924zm23.557-54.043l55.98-42.336 208.864-39.423-3.937 10.513-198.967 38.631-1.401.271-49.718 38.512v58.168H156.52v-64.336zm22.822 64.336v-52.284l15.11-11.705h201.343a21.31 21.31 0 0010.054 12.196c14.146 7.748 23.1 22.333 23.721 38.362l-4.057 3.125c-2.682-24.26-23.296-43.194-48.259-43.194-22.378 0-41.258 15.219-46.86 35.848H277.45c-5.603-20.63-24.483-35.85-46.862-35.85-26.776 0-48.561 21.784-48.561 48.562 0 1.668.085 3.315.25 4.94h-2.934zm51.244 31.62c-20.159 0-36.561-16.401-36.561-36.561s16.401-36.562 36.561-36.562 36.562 16.401 36.562 36.562c-.001 20.16-16.402 36.561-36.562 36.561zm48.544-37.272h49.582c-.004.238-.019.475-.019.714 0 1.656.108 3.303.274 4.939h-50.07c.165-1.625.25-3.273.25-4.941 0-.239-.014-.474-.017-.712zm134.365 5.573l-.195 1.247a31.706 31.706 0 01-.704 3.293c-4.244 15.992-18.777 27.161-35.342 27.161s-31.097-11.169-35.342-27.167a36.475 36.475 0 01-1.219-9.394c0-20.16 16.401-36.562 36.561-36.562s36.562 16.401 36.562 36.562a37.316 37.316 0 01-.321 4.86zm28.118.08h-9.817l12.664-9.751-2.847 9.751zm20.663-38.615l-21.585 16.62a57.75 57.75 0 00-29.078-40.324 9.324 9.324 0 01-4.847-8.181v-.707c0-1.12.199-2.222.593-3.271l27.521-73.49h27.396v109.353zm17.463-3.728h-5.459v-13.692h5.459v13.692zm-5.459-25.692v-56.035h5.459v56.035h-5.459z"/><path d="M420.741 274.082h11.36v11.36h-11.36zM441.672 210.156h11.359v11.359h-11.359z"/></svg><svg fill="#fff" viewBox="0 0 100 100" id="engineer" xmlns="http://www.w3.org/2000/svg"><path d="M45 43c.6 0 1-.4 1-1 0-2.2-1.8-4-4-4s-4 1.8-4 4c0 .6.4 1 1 1s1-.4 1-1c0-1.1.9-2 2-2s2 .9 2 2c0 .6.4 1 1 1zM55.9 50.4c.2-.5 0-1.1-.4-1.3-.5-.2-1.1 0-1.3.4-.8 1.6-2.4 2.5-4.2 2.5-1.8 0-3.4-.9-4.1-2.4-.2-.5-.8-.7-1.3-.4-.5.2-.7.8-.4 1.3 1.1 2.2 3.4 3.6 5.9 3.6s4.7-1.5 5.8-3.7zM55 43c.6 0 1-.4 1-1 0-1.1.9-2 2-2s2 .9 2 2c0 .6.4 1 1 1s1-.4 1-1c0-2.2-1.8-4-4-4s-4 1.8-4 4c0 .6.4 1 1 1z"/><path d="M95 89.2c-.8-6-5.1-11-11-12.5L78 75h-.2l-.1-.3c-.1-.3-.3-.6-.6-.7L64 69.7c.1-.3 0-.5-.1-.8l-3-5.2c-.3-.5-.9-.6-1.4-.4l-1.5.9V60c5.4-2.9 9-8.5 9-15h1c2.8 0 5-2.2 5-5 0-1.3-.5-2.5-1.3-3.4C73 36 74 34.6 74 33c0-1.9-1.3-3.4-3-3.9v-3c0-5.3-2.2-10.3-6-13.9V9c0-1.7-1.3-3-3-3-1.5 0-2.7 1-2.9 2.4-1.6-.7-3.3-1.1-5.1-1.3V7c0-1.7-1.3-3-3-3h-2c-1.7 0-3 1.3-3 3v.1c-1.8.2-3.4.6-5.1 1.3C40.7 7 39.5 6 38 6c-1.7 0-3 1.3-3 3v3.2c-3.8 3.6-6 8.6-6 13.9v3c-1.7.4-3 2-3 3.9 0 1.6 1 3 2.3 3.6-.8.9-1.3 2.1-1.3 3.4 0 2.8 2.2 5 5 5h1c0 6.5 3.7 12.1 9 15v4.2l-1.5-.9c-.5-.3-1.1-.1-1.4.4l-3 5.2c-.1.2-.1.5-.1.7l-13.4 4.5c-.3.1-.6.4-.6.7v.2h-.2l-6 1.6c-5.9 1.6-10.2 6.5-11 12.5L4 94.9c0 .3 0 .6.2.8s.5.3.8.3H94.8c.3 0 .6-.1.8-.3.2-.2.3-.5.2-.8l-.8-5.7zM52.1 94h-4.4l-7.8-21.8 6.6 3.8c.2.1.3.1.5.1h.3c.3-.1.5-.2.6-.5L50 72l2.1 3.7c.1.2.4.4.6.5h.3c.2 0 .3 0 .5-.1l6.3-3.6L52.1 94zm7.5-28.4l2 3.4c-.3 0-.5.2-.7.5l-7.5 4.4-2-3.5 5.9-3.4c.1 0 .2-.1.3-.2l2-1.2zM68 43h-1v-6h1c1.7 0 3 1.3 3 3s-1.3 3-3 3zm1-16.9V29h-6v-6h1c.6 0 1-.4 1-1v-6.8c2.6 3 4 6.9 4 10.9zM61 9c0-.6.4-1 1-1s1 .4 1 1v12h-2V9zm-11 8c2.2 0 4 1.8 4 4s-1.8 4-4 4-4-1.8-4-4 1.8-4 4-4zM49 6h2c.6 0 1 .4 1 1v8.4c-.6-.2-1.3-.4-2-.4s-1.4.1-2 .4V7c0-.6.4-1 1-1zm-3 10.5c-1.2 1.1-2 2.7-2 4.5 0 3.3 2.7 6 6 6s6-2.7 6-6c0-1.8-.8-3.4-2-4.5V9.1c1.7.2 3.4.7 5 1.4V22c0 .6.4 1 1 1h1v6H39v-6h1c.6 0 1-.4 1-1V10.6c1.6-.7 3.3-1.2 5-1.4v7.3zM37 9c0-.6.4-1 1-1s1 .4 1 1v12h-2V9zm-6 17.1c0-4 1.4-7.9 4-11V22c0 .6.4 1 1 1h1v6h-6v-2.9zM30 31h40c1.1 0 2 .9 2 2s-.9 2-2 2H30c-1.1 0-2-.9-2-2s.9-2 2-2zm2 12c-1.7 0-3-1.3-3-3s1.3-3 3-3h1v6h-1zm3 2v-8h30v8c0 8.3-6.7 15-15 15s-15-6.7-15-15zm9 15.9c1.9.7 3.9 1.1 6 1.1s4.1-.4 6-1.1v4.5l-6 3.5-6-3.5v-4.5zm-3.6 4.7l1.9 1.1c.1.1.3.2.4.2l5.9 3.4-2 3.5-8.2-4.8 2-3.4zM6.7 89.4c.7-5.2 4.4-9.5 9.6-10.9l5.1-1.3-2.4 8.5c-.1.5.2 1.1.7 1.2l8.7 2.6-3 4.4H6.1l.6-4.5zM27.9 94l3-4.4c.2-.3.2-.6.1-.9-.1-.3-.3-.5-.7-.6l-9.1-2.7 2.6-9.5 13.6-4.5L45.6 94H27.9zm26.3 0l8.2-22.7L76 75.8l2.6 9.5-9.1 2.7c-.3.1-.5.3-.7.6-.1.3-.1.6.1.9l3 4.4H54.2zm20.1 0l-3-4.4L80 87c.5-.2.8-.7.7-1.2l-2.3-8.5 5.1 1.3c5.1 1.4 8.9 5.6 9.6 10.9l.6 4.6H74.3z"/></svg><svg fill="none" viewBox="0 0 26 20" id="header-aside-email" xmlns="http://www.w3.org/2000/svg"><path d="M.5 19.5V5.224L12.975.534 25.5 5.224V19.5H.5zM12.482 11.314l10.822-4.117M13 11.315L2.744 7.197" stroke="#9EA9B6"/></svg><svg fill="none" viewBox="0 0 28 28" id="header-aside-phone" xmlns="http://www.w3.org/2000/svg"><path clip-rule="evenodd" d="M7.558 12.307c-.334-1.675 1.562-2.568 2.79-3.35.668-.446.78-1.116.557-1.786-.67-1.898-1.897-3.572-2.677-5.47-.112-.335-.447-.559-.781-.67C4.21.696 1.869 3.15 1.199 6.166-.809 15.098 12.801 28.72 21.838 26.821c3.012-.67 5.466-3.015 5.131-6.252-.111-.335-.334-.67-.669-.782-1.896-.781-3.57-2.01-5.466-2.68-.67-.223-1.339-.11-1.785.559-.781 1.228-1.674 3.126-3.347 2.791-2.9-.558-7.698-5.359-8.144-8.15z" stroke="#9EA9B6"/></svg><svg fill="none" viewBox="0 0 19 18" id="heart-icon" xmlns="http://www.w3.org/2000/svg"><path d="M12.987 0a5.68 5.68 0 00-2.195.476l-.033.015-.033.019a5.508 5.508 0 00-1.255.95c-2.01-1.884-5.21-2.021-7.4.118l-.022.021-.02.023C.108 3.796.153 7.142 1.304 9.788l.01.02.01.022c1.356 2.72 3.888 5.032 6.196 6.932l.006.005.005.005c.148.118.404.362.698.602.295.24.628.502 1.115.603l.11.023.11-.01c.51-.047.71-.252 1.047-.481.336-.23.707-.52 1.09-.838a32.113 32.113 0 002.045-1.865l.024-.023.003-.003c1.08-1 2.151-2.151 3.059-3.506v-.001l.006-.008c1.439-2.1 2.137-4.928 1.304-7.716l-.015-.05-.02-.046c-.934-2.19-2.945-3.477-5.12-3.453zm.026 1.715c1.567-.039 2.94.87 3.621 2.424.63 2.176.086 4.393-1.087 6.1l-.003.004-.003.004c-.817 1.222-1.807 2.291-2.833 3.237l-.013.013-.013.013a31.163 31.163 0 01-1.958 1.787c-.357.297-.7.563-.966.744-.1.069-.195.115-.273.15a2.431 2.431 0 01-.294-.204c-.218-.177-.45-.403-.701-.605-.004-.003-.009-.006-.012-.01-2.24-1.845-4.599-4.085-5.733-6.344-.92-2.131-.88-4.682.42-6.181a3.79 3.79 0 015.708.415l.638.851.618-.868c.355-.5.779-.881 1.293-1.171a4.36 4.36 0 011.591-.359z" fill="#8D8D8D"/></svg><svg fill="none" viewBox="0 0 20 24" id="home-icon" xmlns="http://www.w3.org/2000/svg"><path d="M2.222 24h15.556c.59 0 1.154-.253 1.571-.703A2.5 2.5 0 0020 21.6V10.8c0-.157-.027-.314-.082-.46a1.213 1.213 0 00-.24-.391l-8.89-9.6A1.07 1.07 0 0010.006 0a1.07 1.07 0 00-.783.349l-8.889 9.6a1.208 1.208 0 00-.245.39A1.283 1.283 0 000 10.8v10.8a2.5 2.5 0 00.65 1.697c.418.45.983.703 1.572.703zm5.556-2.4v-6h4.444v6H7.778zM2.222 11.292L10 2.893l7.778 8.4V21.6h-3.334v-6a2.5 2.5 0 00-.65-1.697 2.143 2.143 0 00-1.572-.703H7.778c-.59 0-1.155.253-1.572.703a2.5 2.5 0 00-.65 1.697v6H2.222V11.292z" fill="#E11C4B"/></svg><svg fill="none" viewBox="0 0 32 32" id="instagram" xmlns="http://www.w3.org/2000/svg"><g clip-path="url(#iclip0_1922_1573)" fill="#fff"><path d="M16.005 7.784a8.21 8.21 0 00-8.21 8.21 8.21 8.21 0 008.21 8.211 8.21 8.21 0 008.211-8.21 8.21 8.21 0 00-8.21-8.21zm0 13.54a5.328 5.328 0 01-5.329-5.33 5.328 5.328 0 015.33-5.329 5.328 5.328 0 015.329 5.33 5.327 5.327 0 01-5.33 5.33z"/><path d="M22.597.101c-2.944-.137-10.236-.13-13.182 0C6.825.223 4.54.848 2.7 2.69-.377 5.767.016 9.913.016 15.995c0 6.224-.347 10.274 2.684 13.305 3.09 3.088 7.296 2.684 13.305 2.684 6.166 0 8.294.004 10.474-.84 2.964-1.15 5.201-3.8 5.42-8.559.138-2.945.13-10.236 0-13.182C31.635 3.785 28.62.379 22.597.1zm4.66 27.163C25.24 29.28 22.441 29.1 15.967 29.1c-6.667 0-9.34.099-11.291-1.857-2.247-2.236-1.84-5.827-1.84-11.27 0-7.367-.756-12.673 6.637-13.051 1.699-.06 2.199-.08 6.475-.08l.06.04c7.105 0 12.68-.744 13.015 6.648.076 1.686.093 2.193.093 6.462-.001 6.59.124 9.279-1.859 11.27z"/><path d="M24.541 9.379a1.919 1.919 0 100-3.838 1.919 1.919 0 000 3.838z"/></g><defs><clipPath id="iclip0_1922_1573"><path fill="#fff" d="M0 0h32v32H0z"/></clipPath></defs></svg><svg fill="none" viewBox="0 0 244 212" id="logo" xmlns="http://www.w3.org/2000/svg"><path d="M122 0l122 181.026-31.968-8.573-48.37-9.562L122 160.912l-31.423 1.979-27.54 3.956-30.363 5.606L0 181.026 122 0z" fill="#000"/><path d="M104.347 25.719l39.543 4.947 2.471 5.605-45.192-5.606 3.178-4.946zM96.226 37.92l55.079 6.265 3.883 5.276-62.14-7.254 3.178-4.288zM89.165 49.13l72.025 7.585 3.531 7.254-81.205-7.254 5.649-7.584zM55.27 102.878L207.09 128.6 42.207 171.136 1.25 180.697l103.095-43.196 1.541-1.438c3.921-3.662 3.136-9.984-1.541-12.411L55.27 102.878zM76.308 67.356l98.299 10.359 7.414 9.996L70.806 75.84l5.502-8.485zM62.685 87.71l127.104 13.52 6.708 9.232L57.182 96.195l5.503-8.485z" fill="#fff"/><path d="M76.308 67.356l98.299 10.359 7.414 9.996L70.806 75.84l5.502-8.485zM62.685 87.71l127.104 13.52 6.708 9.232L57.182 96.195l5.503-8.485zM19.51 187.909L17.337 201h-3.164l2.173-13.091h3.164zm1.623 5.606l-.274 2.41H16.62l.275-2.41h4.238zm11.545 1.144c-.24 1.411-.708 2.602-1.407 3.573-.694.968-1.54 1.701-2.537 2.199a7.032 7.032 0 01-3.203.748c-1.206 0-2.25-.268-3.132-.805-.882-.537-1.523-1.319-1.924-2.346-.396-1.027-.473-2.274-.23-3.74.23-1.41.692-2.603 1.387-3.579.699-.976 1.55-1.715 2.55-2.218a7.086 7.086 0 013.235-.761c1.197 0 2.235.271 3.113.812.882.541 1.521 1.327 1.917 2.359.397 1.031.473 2.284.23 3.758zm-3.164-.371c.132-.822.132-1.515 0-2.077-.128-.563-.38-.987-.755-1.272-.375-.29-.863-.435-1.463-.435a3.39 3.39 0 00-1.803.492c-.533.324-.978.797-1.336 1.419-.358.618-.607 1.366-.748 2.244-.145.831-.15 1.524-.013 2.078.14.553.403.971.787 1.252.383.277.871.416 1.463.416.66 0 1.255-.16 1.784-.48.528-.319.97-.786 1.323-1.399.358-.614.611-1.36.76-2.238zm15.058-6.379l-.435 2.57h-5.779L36.62 201h-3.164l2.173-13.091h8.943zm12.037 4.743h-3.157a2.545 2.545 0 00-.096-.889 1.71 1.71 0 00-.384-.677 1.654 1.654 0 00-.652-.435 2.566 2.566 0 00-.907-.147c-.66 0-1.26.164-1.796.492-.537.329-.987.802-1.35 1.419-.361.618-.615 1.36-.76 2.225-.132.835-.13 1.532.007 2.09.14.558.4.978.78 1.259.379.277.86.416 1.444.416.38 0 .73-.045 1.055-.134.328-.094.624-.228.888-.403a2.887 2.887 0 001.138-1.47h3.183a6.347 6.347 0 01-.78 1.719 6.699 6.699 0 01-1.355 1.541 6.559 6.559 0 01-1.898 1.105c-.72.277-1.522.416-2.404.416-1.206 0-2.245-.271-3.119-.812-.87-.541-1.498-1.325-1.886-2.352-.383-1.031-.456-2.28-.217-3.746.234-1.419.697-2.614 1.387-3.586.695-.971 1.539-1.706 2.531-2.205a7.03 7.03 0 013.19-.748c.818 0 1.553.111 2.205.332a4.51 4.51 0 011.669.959c.456.418.794.931 1.016 1.541.226.609.315 1.306.268 2.09zm14.186-4.743L68.622 201h-3.12l1.758-10.56h-4.858L60.644 201h-3.119l2.173-13.091h11.097zM71.073 201l2.173-13.091h9.128l-.434 2.57h-5.964l-.435 2.684h5.497l-.434 2.576h-5.498l-.434 2.691h5.963l-.434 2.57h-9.128zm24.635-2.448l-1.087 5.542h-2.966l.512-3.094h-.92l.415-2.448h4.046zM82.182 201l2.174-13.091h3.042l-1.751 10.611h5.011l1.752-10.611h3.087L93.324 201H82.182zm17.387 0h-3.4l6.589-13.091h4.213L109.214 201h-3.4l-1.438-9.793h-.103L99.569 201zm.409-5.152h7.108l-.409 2.403h-7.108l.409-2.403zM110.624 201l2.173-13.091h5.459c.98 0 1.779.139 2.397.416.618.277 1.052.664 1.304 1.163.256.499.328 1.076.217 1.732a3.285 3.285 0 01-.55 1.33 3.588 3.588 0 01-1.022.971 4.09 4.09 0 01-1.355.537l-.026.128c.528.021.995.162 1.4.422.409.26.712.624.908 1.093.196.464.24 1.01.134 1.636a3.95 3.95 0 01-.85 1.886c-.448.55-1.038.984-1.771 1.304-.733.315-1.581.473-2.544.473h-5.874zm3.598-2.55h1.956c.678 0 1.202-.13 1.573-.39a1.56 1.56 0 00.665-1.087c.055-.337.025-.626-.09-.869a1.187 1.187 0 00-.575-.569c-.269-.137-.607-.205-1.016-.205h-2.014l-.499 3.12zm.851-5.159h1.757c.341 0 .655-.057.94-.172.29-.115.528-.282.716-.499a1.5 1.5 0 00.358-.786c.072-.439-.028-.784-.3-1.036-.273-.251-.672-.377-1.196-.377h-1.802l-.473 2.87zm8.814-2.812l.435-2.57h11.065l-.435 2.57h-3.97L129.244 201h-3.12l1.739-10.521h-3.976zm23.684 4.18c-.238 1.411-.707 2.602-1.406 3.573-.694.968-1.54 1.701-2.538 2.199a7.028 7.028 0 01-3.202.748c-1.206 0-2.25-.268-3.132-.805-.882-.537-1.523-1.319-1.924-2.346-.396-1.027-.473-2.274-.23-3.74.23-1.41.692-2.603 1.387-3.579.699-.976 1.549-1.715 2.55-2.218a7.088 7.088 0 013.235-.761c1.197 0 2.235.271 3.113.812.882.541 1.521 1.327 1.917 2.359.397 1.031.473 2.284.23 3.758zm-3.164-.371c.132-.822.132-1.515 0-2.077-.128-.563-.379-.987-.754-1.272-.375-.29-.863-.435-1.464-.435a3.39 3.39 0 00-1.802.492c-.533.324-.978.797-1.336 1.419-.358.618-.607 1.366-.748 2.244-.145.831-.149 1.524-.013 2.078.141.553.403.971.786 1.252.384.277.872.416 1.464.416.661 0 1.255-.16 1.784-.48.528-.319.969-.786 1.323-1.399.358-.614.611-1.36.76-2.238zm6.13-6.379h3.919l1.981 8.105h.154l4.666-8.105h3.918L163.002 201h-3.081l1.336-8.041h-.109l-4.462 7.958h-1.962l-1.815-8.003h-.109L151.445 201h-3.081l2.173-13.091zM167.807 201h-3.401l6.591-13.091h4.212L177.453 201h-3.401l-1.438-9.793h-.102L167.807 201zm.409-5.152h7.108l-.409 2.403h-7.108l.409-2.403zm10.322-5.369l.434-2.57h11.065l-.435 2.57h-3.969L183.894 201h-3.119l1.738-10.521h-3.975zm13.044-2.57h3.158l-1.253 7.543h.109l6.405-7.543h2.723L200.55 201h-3.164l1.253-7.555h-.083L192.087 201h-2.678l2.173-13.091zM210.536 201l-3.209-5.433h-.722l-.901 5.433h-3.164l2.173-13.091h3.164l-.844 5.082h.505l4.897-5.082h3.956l-6.059 6.181 4.148 6.91h-3.944zm7.931 0h-3.4l6.59-13.091h4.212L228.113 201h-3.401l-1.438-9.793h-.102L218.467 201zm.409-5.152h7.108l-.409 2.403h-7.108l.409-2.403z" fill="#fff"/></svg><svg fill="none" viewBox="0 0 25 17" id="mail-icon" xmlns="http://www.w3.org/2000/svg"><path d="M5.315 11.566l-4.043 3.888a2.386 2.386 0 01-.263-1.115V1.6l7.33 7.06m7.89.408L24 1.575v12.764c0 .414-.091.793-.252 1.091l-5.648-5.398M1.302 1.4l-.029-.019M8.338 8.66l2.058 1.985c.11.105.221.197.331.274 1.12.865 2.422.865 3.536-.005.106-.077.216-.173.318-.27l2.071-1.994" stroke="#8D8D8D" stroke-width="1.5" stroke-miterlimit="10" stroke-linecap="round" stroke-linejoin="round"/><path d="M18.064 9.997l5.683 5.433c-.193.37-.493.61-.824.61H2.087c-.323 0-.617-.225-.815-.586l5.56-5.347" stroke="#8D8D8D" stroke-width="1.5" stroke-miterlimit="10" stroke-linecap="round" stroke-linejoin="round"/><path d="M18.856 1.041h4.355c.272 0 .534.168.723.437a.688.688 0 01.065.096L16.65 8.65l-2.072 1.995a3.268 3.268 0 01-.317.269c-1.114.87-2.417.87-3.536.005a2.778 2.778 0 01-.331-.274L8.337 8.659l-7.329-7.06c.018-.03.041-.063.064-.097.194-.288.456-.461.742-.461h3.904m-3.572 15s-1.266.067-1.137-2.156" stroke="#8D8D8D" stroke-width="1.5" stroke-miterlimit="10" stroke-linecap="round" stroke-linejoin="round"/><path d="M5.373 1.041h14.732" stroke="#8D8D8D" stroke-width="1.358"/></svg><svg viewBox="0 0 792 792" id="moon-icon" xmlns="http://www.w3.org/2000/svg"><path d="M402.336 396c0-170.8 110.855-315.909 265.914-371.473C624.765 8.935 577.986 0 528.957 0 305.167 0 123.75 177.309 123.75 396c0 218.716 181.417 396 405.207 396 49.029 0 95.808-8.935 139.293-24.527C513.191 711.909 402.336 566.8 402.336 396z"/></svg><svg fill="none" viewBox="0 0 26 26" id="search-icon" xmlns="http://www.w3.org/2000/svg"><path d="M11.119 22.236c2.467 0 4.863-.826 6.806-2.346l6.11 6.11L26 24.035l-6.11-6.11a11.051 11.051 0 002.348-6.807C22.238 4.988 17.25 0 11.118 0 4.989 0 0 4.988 0 11.118s4.988 11.118 11.119 11.118zm0-19.456c4.599 0 8.339 3.74 8.339 8.338 0 4.599-3.74 8.339-8.34 8.339-4.598 0-8.338-3.74-8.338-8.339S6.52 2.78 11.119 2.78z" fill="#E11C4B"/></svg><svg fill="none" viewBox="0 0 16 18" id="shop-icon" xmlns="http://www.w3.org/2000/svg"><path d="M3 4.5V2.7c0-.521.168-1.031.483-1.469A2.937 2.937 0 014.775.235 3.304 3.304 0 016.462.032C7.034.112 7.568.34 8 .688A3.152 3.152 0 019.538.032a3.304 3.304 0 011.687.203c.528.213.977.559 1.292.996.315.438.483.948.483 1.469v1.8h1.5c.398 0 .78.142 1.06.395.282.254.44.597.44.955v9.005c0 .834-.368 1.634-1.024 2.224-.655.59-1.544.921-2.471.921H4c-1.06 0-2.078-.38-2.828-1.054C.422 16.27 0 15.355 0 14.4V5.85c0-.358.158-.701.44-.955A1.589 1.589 0 011.5 4.5H3zm6.635 12.15a2.92 2.92 0 01-.625-1.795V5.85H1.5v8.55c0 .295.065.588.19.861.126.273.31.521.542.73.232.209.508.375.811.488.304.113.629.171.957.171h5.635zM7.5 4.5V2.7c0-.358-.158-.701-.44-.955A1.589 1.589 0 006 1.35c-.398 0-.78.142-1.06.395-.282.254-.44.597-.44.955v1.8h3zm1.5 0h2.5V2.7a1.26 1.26 0 00-.273-.776 1.492 1.492 0 00-.719-.494 1.659 1.659 0 00-.904-.032 1.525 1.525 0 00-.76.442c.101.27.156.56.156.86v1.8zm1.51 10.354c0 .477.21.933.584 1.27.375.337.882.526 1.411.526.53 0 1.036-.19 1.41-.526a1.71 1.71 0 00.585-1.27V5.85h-3.99v9.005z" fill="#8D8D8D"/></svg><svg viewBox="0 0 612 612" id="sun-icon" xmlns="http://www.w3.org/2000/svg"><path d="M76.5 286.875H19.125C8.568 286.875 0 295.443 0 306s8.568 19.125 19.125 19.125H76.5c10.557 0 19.125-8.568 19.125-19.125s-8.568-19.125-19.125-19.125zM306 95.625c10.557 0 19.125-8.568 19.125-19.125V19.125C325.125 8.568 316.557 0 306 0s-19.125 8.568-19.125 19.125V76.5c0 10.557 8.568 19.125 19.125 19.125zm184.002 53.167l40.182-40.182c7.401-7.401 7.401-19.393 0-26.794s-19.394-7.401-26.795 0l-40.182 40.182c-7.401 7.401-7.401 19.393 0 26.794 7.402 7.402 19.394 7.402 26.795 0zM141.716 443.509l-40.182 40.182c-7.401 7.401-7.401 19.393 0 26.794s19.393 7.401 26.794 0l40.182-40.182c7.401-7.401 7.401-19.393 0-26.794s-19.392-7.402-26.794 0zm-11.513-286.263c7.478 7.478 19.584 7.478 27.042 0 7.459-7.478 7.459-19.584 0-27.042L116.682 89.62c-7.478-7.478-19.584-7.478-27.043 0-7.478 7.478-7.478 19.584 0 27.043l40.564 40.583zM306 516.375c-10.557 0-19.125 8.568-19.125 19.125v57.375c0 10.557 8.568 19.125 19.125 19.125s19.125-8.568 19.125-19.125V535.5c0-10.557-8.568-19.125-19.125-19.125zm175.797-61.621c-7.478-7.478-19.584-7.478-27.043 0-7.478 7.479-7.478 19.584 0 27.043l40.564 40.564c7.478 7.478 19.584 7.478 27.043 0 7.459-7.479 7.478-19.584 0-27.043l-40.564-40.564zm111.078-167.879H535.5c-10.557 0-19.125 8.568-19.125 19.125s8.568 19.125 19.125 19.125h57.375c10.557 0 19.125-8.568 19.125-19.125s-8.568-19.125-19.125-19.125zM306 133.76c-95.128 0-172.24 77.112-172.24 172.24S210.872 478.24 306 478.24 478.24 401.128 478.24 306 401.128 133.76 306 133.76zm0 306.077c-73.918 0-133.837-59.919-133.837-133.837S232.082 172.163 306 172.163 439.837 232.082 439.837 306 379.918 439.837 306 439.837z"/></svg><svg fill="none" viewBox="0 0 21 18" id="telegram-icon" xmlns="http://www.w3.org/2000/svg"><path d="M18.665.758L.935 7.595c-1.21.486-1.203 1.161-.222 1.462l4.552 1.42 10.532-6.645c.498-.303.953-.14.579.192l-8.533 7.701h-.002l.002.001-.314 4.692c.46 0 .663-.211.921-.46l2.211-2.15 4.599 3.397c.848.467 1.457.227 1.668-.785l3.019-14.228c.309-1.239-.473-1.8-1.282-1.434z" fill="#8D8D8D"/></svg><svg viewBox="0 0 482.6 482.6" id="telephone" xmlns="http://www.w3.org/2000/svg"><path d="M98.339 320.8c47.6 56.9 104.9 101.7 170.3 133.4 24.9 11.8 58.2 25.8 95.3 28.2 2.3.1 4.5.2 6.8.2 24.9 0 44.9-8.6 61.2-26.3.1-.1.3-.3.4-.5 5.8-7 12.4-13.3 19.3-20 4.7-4.5 9.5-9.2 14.1-14 21.3-22.2 21.3-50.4-.2-71.9l-60.1-60.1c-10.2-10.6-22.4-16.2-35.2-16.2-12.8 0-25.1 5.6-35.6 16.1l-35.8 35.8c-3.3-1.9-6.7-3.6-9.9-5.2-4-2-7.7-3.9-11-6-32.6-20.7-62.2-47.7-90.5-82.4-14.3-18.1-23.9-33.3-30.6-48.8 9.4-8.5 18.2-17.4 26.7-26.1 3-3.1 6.1-6.2 9.2-9.3 10.8-10.8 16.6-23.3 16.6-36s-5.7-25.2-16.6-36l-29.8-29.8c-3.5-3.5-6.8-6.9-10.2-10.4-6.6-6.8-13.5-13.8-20.3-20.1-10.3-10.1-22.4-15.4-35.2-15.4-12.7 0-24.9 5.3-35.6 15.5l-37.4 37.4c-13.6 13.6-21.3 30.1-22.9 49.2-1.9 23.9 2.5 49.3 13.9 80 17.5 47.5 43.9 91.6 83.1 138.7zm-72.6-216.6c1.2-13.3 6.3-24.4 15.9-34l37.2-37.2c5.8-5.6 12.2-8.5 18.4-8.5 6.1 0 12.3 2.9 18 8.7 6.7 6.2 13 12.7 19.8 19.6 3.4 3.5 6.9 7 10.4 10.6l29.8 29.8c6.2 6.2 9.4 12.5 9.4 18.7s-3.2 12.5-9.4 18.7c-3.1 3.1-6.2 6.3-9.3 9.4-9.3 9.4-18 18.3-27.6 26.8l-.5.5c-8.3 8.3-7 16.2-5 22.2.1.3.2.5.3.8 7.7 18.5 18.4 36.1 35.1 57.1 30 37 61.6 65.7 96.4 87.8 4.3 2.8 8.9 5 13.2 7.2 4 2 7.7 3.9 11 6 .4.2.7.4 1.1.6 3.3 1.7 6.5 2.5 9.7 2.5 8 0 13.2-5.1 14.9-6.8l37.4-37.4c5.8-5.8 12.1-8.9 18.3-8.9 7.6 0 13.8 4.7 17.7 8.9l60.3 60.2c12 12 11.9 25-.3 37.7-4.2 4.5-8.6 8.8-13.3 13.3-7 6.8-14.3 13.8-20.9 21.7-11.5 12.4-25.2 18.2-42.9 18.2-1.7 0-3.5-.1-5.2-.2-32.8-2.1-63.3-14.9-86.2-25.8-62.2-30.1-116.8-72.8-162.1-127-37.3-44.9-62.4-86.7-79-131.5-10.3-27.5-14.2-49.6-12.6-69.7z"/></svg><svg viewBox="0 0 24 24" fill="none" id="user-icon" xmlns="http://www.w3.org/2000/svg"><path d="M18 18.702C18 15.671 14.5 15 12 15s-6 .67-6 3.702M21 12a9 9 0 11-18 0 9 9 0 0118 0zm-6-3a3 3 0 11-6 0 3 3 0 016 0z" stroke="#000" stroke-width="1.5" stroke-linecap="round" stroke-linejoin="round"/></svg><svg fill="none" viewBox="0 0 21 12" id="vk-icon" xmlns="http://www.w3.org/2000/svg"><path d="M19.579.896c.14-.465 0-.806-.662-.806h-2.193c-.558 0-.813.295-.953.619 0 0-1.115 2.719-2.695 4.482-.51.513-.743.675-1.021.675-.139 0-.341-.162-.341-.627V.896c0-.558-.161-.806-.626-.806H7.642c-.348 0-.558.258-.558.504 0 .528.79.65.871 2.138V5.96c0 .707-.127.836-.407.836-.743 0-2.551-2.729-3.624-5.853-.209-.607-.42-.852-.98-.852H.752C.125.091 0 .386 0 .71c0 .582.743 3.462 3.461 7.271 1.812 2.601 4.363 4.011 6.687 4.011 1.393 0 1.565-.313 1.565-.853V9.173c0-.626.133-.752.574-.752.324 0 .882.164 2.183 1.417 1.486 1.486 1.732 2.153 2.567 2.153h2.192c.626 0 .939-.313.759-.931-.197-.615-.907-1.51-1.849-2.569-.512-.604-1.277-1.254-1.51-1.579-.325-.419-.231-.604 0-.976.001.001 2.672-3.761 2.95-5.04z" fill="#8D8D8D"/></svg><svg viewBox="0 0 50 50" id="whatsapp" xmlns="http://www.w3.org/2000/svg"><path d="M25 2C12.31 2 2 12.31 2 25c0 4.08 1.119 7.886 2.984 11.209L2.037 46.73a1 1 0 001.203 1.24l10.97-2.718C17.436 46.972 21.094 48 25 48c12.69 0 23-10.31 23-23S37.69 2 25 2zm0 2c11.61 0 21 9.39 21 21s-9.39 21-21 21c-3.722 0-7.208-.97-10.238-2.666a1 1 0 00-.729-.098l-9.607 2.381 2.576-9.191a1 1 0 00-.1-.78A20.88 20.88 0 014 25C4 13.39 13.39 4 25 4zm-8.357 9c-.641 0-1.557.238-2.309 1.049-.452.487-2.334 2.32-2.334 5.545 0 3.361 2.331 6.262 2.613 6.635h.002v.001a31.669 31.669 0 003.004 3.684c1.804 1.899 4.34 4.093 7.486 5.436 1.45.617 2.593.99 3.46 1.261 1.605.504 3.067.428 4.165.266.823-.121 1.727-.516 2.622-1.082.894-.566 1.771-1.27 2.158-2.34a8.25 8.25 0 00.469-2.059 4.72 4.72 0 00.01-.787c-.02-.238 0-.42-.221-.785-.466-.764-.993-.784-1.543-1.056a183.29 183.29 0 00-2.05-.993c-.871-.415-1.626-.783-2.091-.949-.294-.106-.652-.258-1.17-.199-.517.059-1.029.432-1.326.873-.282.418-1.418 1.758-1.764 2.152-.004-.002.026.011-.111-.056-.428-.212-.952-.392-1.727-.801a14.283 14.283 0 01-2.804-1.947v-.002c-1.579-1.39-2.685-3.135-3.034-3.721.024-.028-.002.006.047-.043l.002-.002c.357-.351.673-.77.94-1.078.378-.436.545-.82.726-1.18.361-.716.16-1.503-.049-1.918v-.002c.015.029-.112-.252-.25-.576l-.5-1.195c-.374-.898-.792-1.906-1.04-2.496v-.002c-.293-.695-.69-1.196-1.208-1.438-.518-.241-.975-.173-.994-.174h-.002A26.2 26.2 0 0016.643 13zm0 2c.385 0 .765.005 1.084.02.327.016.307.017.244-.012-.064-.03.023-.04.209.402.243.578.663 1.59 1.039 2.49.188.451.363.874.504 1.205.14.332.216.517.304.694v.002l.002.002c.087.17.08.061.05.12-.212.42-.24.522-.454.768-.325.375-.657.792-.832.965-.154.151-.43.386-.604.846-.173.46-.092 1.093.186 1.564.37.629 1.59 2.613 3.484 4.282a16.35 16.35 0 003.194 2.216c.888.469 1.611.743 1.773.823.385.19.805.338 1.293.279.489-.059.91-.355 1.178-.658l.002-.002c.357-.405 1.417-1.615 1.926-2.361.021.007.014.001.183.062v.002h.002c.077.027 1.044.46 1.906.871.863.41 1.738.838 2.022.979.41.203.604.335.654.336a2.35 2.35 0 01-.006.328 6.365 6.365 0 01-.357 1.552c-.105.292-.654.893-1.346 1.33-.692.438-1.534.748-1.846.793-.937.139-2.05.189-3.273-.195a33.421 33.421 0 01-3.273-1.193c-2.776-1.184-5.135-3.198-6.82-4.973a29.716 29.716 0 01-1.999-2.338c-.48-.623-.688-.948-.863-1.178l-.002-.001c-.31-.41-2.207-3.05-2.207-5.426 0-2.516 1.168-3.503 1.8-4.184.333-.358.696-.41.843-.41z"/></svg><svg fill="none" viewBox="0 0 22 16" id="youtube-icon" xmlns="http://www.w3.org/2000/svg"><path d="M21.062 2.98a2.631 2.631 0 00-1.857-1.858C17.568.682 11 .682 11 .682s-6.567 0-8.205.438A2.628 2.628 0 00.938 2.979C.5 4.619.5 8.04.5 8.04s0 3.422.438 5.06a2.632 2.632 0 001.857 1.859c1.638.44 8.205.44 8.205.44s6.567 0 8.206-.44a2.628 2.628 0 001.856-1.859c.438-1.638.438-5.06.438-5.06s0-3.422-.438-5.06zM8.914 11.183V4.9l5.438 3.118-5.438 3.164z" fill="#8D8D8D"/></svg></svg>