<svg width="180" height="33" viewBox="0 0 180 33" fill="none" xmlns="http://www.w3.org/2000/svg">
<g clip-path="url(#clip0_313_4)">
<path d="M0 4.69995V31.7999H3.6236V8.59995H9.52247V4.69995H0Z" fill="white"/>
<path d="M18.5393 9.49995L20.309 23.2H16.8539L18.5393 9.49995ZM16.0955 4.69995L12.4719 31.7999H15.7584L16.3483 26.9H20.7304L21.3202 31.7999H24.9438L21.4045 4.69995H16.0955Z" fill="white"/>
<mask id="mask0_313_4" style="mask-type:luminance" maskUnits="userSpaceOnUse" x="0" y="0" width="180" height="33">
<path d="M180 0H0V32.1H180V0Z" fill="white"/>
</mask>
<g mask="url(#mask0_313_4)">
<path d="M35.7303 11.4C35.7303 10.2 35.5617 9.40005 35.2246 8.90005C34.8876 8.50005 34.4662 8.30005 33.8763 8.30005C33.2864 8.30005 32.8651 8.50005 32.528 8.90005C32.1909 9.30005 32.0224 10 32.0224 10.9V13.8H28.6516V11.2C28.6516 9.00005 29.073 7.30005 29.9999 6.10005C30.9269 4.90005 32.2752 4.30005 34.0449 4.30005C35.8145 4.30005 37.1628 4.90005 38.0898 6.10005C39.0168 7.30005 39.4381 9.00005 39.4381 11.2V11.9C39.4381 14.8 38.5954 16.7 36.91 17.5C37.837 18 38.5112 18.7 38.8482 19.7C39.2696 20.7 39.4381 21.9001 39.4381 23.2001V25.3C39.4381 27.5 39.0168 29.2 38.0898 30.4C37.1628 31.6 35.8145 32.2001 34.0449 32.2001C32.2752 32.2001 30.9269 31.6 29.9999 30.4C29.073 29.2 28.6516 27.5 28.6516 25.3V21.9H32.0224V25.6C32.0224 26.6 32.1909 27.3001 32.528 27.7001C32.8651 28.1001 33.2864 28.3 33.8763 28.3C34.4662 28.3 34.8876 28.1001 35.2246 27.7001C35.5617 27.3001 35.7303 26.5 35.7303 25.3V23.2001C35.7303 21.9001 35.5617 21 35.1404 20.5C34.8033 20 34.1291 19.7 33.3707 19.7H32.8651V15.8H33.6235C34.2977 15.8 34.8033 15.6 35.2246 15.2C35.646 14.8 35.8145 14 35.8145 13V11.4H35.7303Z" fill="white"/>
</g>
<mask id="mask1_313_4" style="mask-type:luminance" maskUnits="userSpaceOnUse" x="0" y="0" width="180" height="33">
<path d="M180 0H0V32.1H180V0Z" fill="white"/>
</mask>
<g mask="url(#mask1_313_4)">
<path d="M54.3539 21.6999V25.2999C54.3539 27.4999 53.9326 29.1999 53.0056 30.3999C52.0786 31.5999 50.7303 32.1999 48.9606 32.1999C47.191 32.1999 45.8427 31.5999 44.9157 30.3999C43.9887 29.1999 43.5674 27.4999 43.5674 25.2999V11.1999C43.5674 8.9999 43.9887 7.2999 44.9157 6.0999C45.9269 4.9999 47.191 4.3999 48.9606 4.3999C50.7303 4.3999 52.0786 4.9999 53.0056 6.1999C53.9326 7.3999 54.3539 9.0999 54.3539 11.2999V13.8999H50.9831V10.9999C50.9831 9.9999 50.8146 9.2999 50.4775 8.8999C50.1404 8.4999 49.7191 8.2999 49.1292 8.2999C48.5393 8.2999 48.1179 8.4999 47.7809 8.8999C47.3595 9.2999 47.191 9.9999 47.191 10.8999V25.5999C47.191 26.5999 47.3595 27.2999 47.6966 27.6999C48.0337 28.0999 48.455 28.2999 49.0449 28.2999C49.6348 28.2999 50.0561 28.0999 50.3932 27.6999C50.7303 27.2999 50.8988 26.5999 50.8988 25.5999V21.6999H54.3539Z" fill="white"/>
</g>
<mask id="mask2_313_4" style="mask-type:luminance" maskUnits="userSpaceOnUse" x="0" y="0" width="180" height="33">
<path d="M180 0H0V32.1H180V0Z" fill="white"/>
</mask>
<g mask="url(#mask2_313_4)">
<path d="M57.8091 4.69995H68.9327V8.59995H65.2248V31.7999H61.6012V8.59995H57.8091V4.69995Z" fill="white"/>
</g>
<mask id="mask3_313_4" style="mask-type:luminance" maskUnits="userSpaceOnUse" x="0" y="0" width="180" height="33">
<path d="M180 0H0V32.1H180V0Z" fill="white"/>
</mask>
<g mask="url(#mask3_313_4)">
<path d="M78.2023 4.69995C79.972 4.69995 81.3203 5.29995 82.2472 6.39995C83.0899 7.49995 83.5956 9.19995 83.5956 11.4V14.9C83.5956 17.1 83.1742 18.8 82.2472 19.9C81.4045 21 80.0562 21.6 78.2023 21.6H76.5169V31.7999H72.8933V4.69995H78.2023ZM76.4326 8.59995V17.8H78.118C78.7079 17.8 79.1293 17.6 79.3821 17.3C79.7192 16.9 79.8034 16.3 79.8034 15.3V11.2C79.8034 10.2 79.6349 9.49995 79.3821 9.19995C79.045 8.79995 78.6236 8.69995 78.118 8.69995H76.4326V8.59995Z" fill="white"/>
</g>
<mask id="mask4_313_4" style="mask-type:luminance" maskUnits="userSpaceOnUse" x="0" y="0" width="180" height="33">
<path d="M180 0H0V32.1H180V0Z" fill="white"/>
</mask>
<g mask="url(#mask4_313_4)">
<path d="M87.1348 11.2C87.1348 9.00005 87.6404 7.30005 88.5673 6.10005C89.4943 4.90005 90.8426 4.30005 92.6123 4.30005C94.382 4.30005 95.7303 4.90005 96.6572 6.10005C97.5842 7.30005 98.0898 9.00005 98.0898 11.2V25.3C98.0898 27.5 97.5842 29.2 96.6572 30.4C95.7303 31.6 94.382 32.2001 92.6123 32.2001C90.8426 32.2001 89.4943 31.6 88.5673 30.4C87.6404 29.2 87.1348 27.5 87.1348 25.3V11.2ZM90.6741 25.6C90.6741 26.6 90.8426 27.3001 91.1797 27.7001C91.5168 28.1001 91.9381 28.3 92.528 28.3C93.1179 28.3 93.5393 28.1001 93.8763 27.7001C94.2134 27.3001 94.382 26.6 94.382 25.6V10.9C94.382 9.90005 94.2134 9.20005 93.8763 8.80005C93.5393 8.40005 93.1179 8.20005 92.528 8.20005C91.9381 8.20005 91.5168 8.40005 91.1797 8.80005C90.8426 9.20005 90.6741 9.90005 90.6741 10.9V25.6Z" fill="white"/>
</g>
<mask id="mask5_313_4" style="mask-type:luminance" maskUnits="userSpaceOnUse" x="0" y="0" width="180" height="33">
<path d="M180 0H0V32.1H180V0Z" fill="white"/>
</mask>
<g mask="url(#mask5_313_4)">
<path d="M106.264 31.8H102.556V4.7H105.758V20.9L109.466 4.7H114.017V31.8H110.815V12.2L106.264 31.8ZM112.331 3.2H104.41V0H112.331V3.2Z" fill="white"/>
</g>
<mask id="mask6_313_4" style="mask-type:luminance" maskUnits="userSpaceOnUse" x="0" y="0" width="180" height="33">
<path d="M180 0H0V32.1H180V0Z" fill="white"/>
</mask>
<g mask="url(#mask6_313_4)">
<path d="M122.528 31.7999H118.905V4.69995H130.281V31.7999H126.573V8.59995H122.528V31.7999Z" fill="white"/>
</g>
<mask id="mask7_313_4" style="mask-type:luminance" maskUnits="userSpaceOnUse" x="0" y="0" width="180" height="33">
<path d="M180 0H0V32.1H180V0Z" fill="white"/>
</mask>
<g mask="url(#mask7_313_4)">
<path d="M140.477 4.69995C142.247 4.69995 143.595 5.29995 144.522 6.39995C145.365 7.49995 145.871 9.19995 145.871 11.4V14.9C145.871 17.1 145.449 18.8 144.522 19.9C143.68 21 142.331 21.6 140.477 21.6H138.792V31.7999H135.168V4.69995H140.477ZM138.792 8.59995V17.8H140.477C141.067 17.8 141.489 17.6 141.741 17.3C142.079 16.9 142.163 16.3 142.163 15.3V11.2C142.163 10.2 141.994 9.49995 141.741 9.19995C141.404 8.79995 140.983 8.69995 140.477 8.69995H138.792V8.59995Z" fill="white"/>
</g>
<mask id="mask8_313_4" style="mask-type:luminance" maskUnits="userSpaceOnUse" x="0" y="0" width="180" height="33">
<path d="M180 0H0V32.1H180V0Z" fill="white"/>
</mask>
<g mask="url(#mask8_313_4)">
<path d="M149.41 11.2C149.41 9.00005 149.916 7.30005 150.843 6.10005C151.77 4.90005 153.118 4.30005 154.888 4.30005C156.657 4.30005 158.006 4.90005 158.933 6.10005C159.86 7.30005 160.365 9.00005 160.365 11.2V25.3C160.365 27.5 159.86 29.2 158.933 30.4C158.006 31.6 156.657 32.2001 154.888 32.2001C153.118 32.2001 151.77 31.6 150.843 30.4C149.916 29.2 149.41 27.5 149.41 25.3V11.2ZM153.034 25.6C153.034 26.6 153.202 27.3001 153.539 27.7001C153.876 28.1001 154.298 28.3 154.888 28.3C155.478 28.3 155.899 28.1001 156.236 27.7001C156.573 27.3001 156.742 26.6 156.742 25.6V10.9C156.742 9.90005 156.573 9.20005 156.236 8.80005C155.899 8.40005 155.478 8.20005 154.888 8.20005C154.298 8.20005 153.876 8.40005 153.539 8.80005C153.202 9.20005 153.034 9.90005 153.034 10.9V25.6Z" fill="white"/>
</g>
<mask id="mask9_313_4" style="mask-type:luminance" maskUnits="userSpaceOnUse" x="0" y="0" width="180" height="33">
<path d="M180 0H0V32.1H180V0Z" fill="white"/>
</mask>
<g mask="url(#mask9_313_4)">
<path d="M172.5 24L175.028 4.69995H180V31.7999H176.629V12.4L174.101 31.7999H170.73L168.034 12.6V31.7999H164.916V4.69995H169.888L172.5 24Z" fill="white"/>
</g>
</g>
<defs>
<clipPath id="clip0_313_4">
<rect width="180" height="32.1" fill="white"/>
</clipPath>
</defs>
</svg>
